<?xml version="1.0" encoding="utf-8"?>
<!-- Generator: Adobe Illustrator 28.1.0, SVG Export Plug-In . SVG Version: 6.00 Build 0)  -->
<svg version="1.1" id="Layer_1" xmlns="http://www.w3.org/2000/svg" xmlns:xlink="http://www.w3.org/1999/xlink" x="0px" y="0px"
	 viewBox="0 0 2200 3000" style="enable-background:new 0 0 2200 3000;" xml:space="preserve">
<style type="text/css">
	.st0{fill:#FFFFFF;}
</style>
<g>
	<g>
		<path class="st0" d="M622.9,964c25.8-13.3,32.9-56,32.9-56s-39.1-8-66.6,5.3c-29.9,14.5-42.6,56-42.6,56S593.4,979.2,622.9,964z"
			/>
		<path class="st0" d="M490.6,834.9c25.3,14.2,64.8-3.2,64.8-3.2s-14.7-37.1-41-52.8c-28.5-17.1-70.2-5-70.2-5
			S461.7,818.6,490.6,834.9z"/>
		<path class="st0" d="M705,1000.4c23.3-17.3,23.4-60.5,23.4-60.5s-39.9-1.6-64.9,16c-27.1,19.1-33,62.1-33,62.1
			S678.4,1020.2,705,1000.4z"/>
		<path class="st0" d="M537.9,920.6c28.5-5.3,47.6-44.1,47.6-44.1s-35.1-18.9-65.3-14.1c-32.8,5.2-57,41.3-57,41.3
			S505.3,926.7,537.9,920.6z"/>
		<path class="st0" d="M705.5,803.4c4.1,28.7-26.5,59.2-26.5,59.2s-29.2-27.2-34.3-57.4c-5.5-32.7,20.9-67.2,20.9-67.2
			S700.9,770.6,705.5,803.4z"/>
		<path class="st0" d="M613.7,763.6c11.8,26.5-9.3,64.2-9.3,64.2s-35.5-18.2-48.7-45.8c-14.3-29.9,1.7-70.3,1.7-70.3
			S600.2,733.2,613.7,763.6z"/>
		<g>
			<path class="st0" d="M1150.6,1776.6c-4.9-0.7-8.4-7.5-7-12.2c5.2-17.9-40.1-68.5-69-122.5c-40.5-75.7-62.6-158.2-63.3-161.8
				c-1-4.8,1.2-10.6,6-11.6c4.8-1,9.8,1.8,11.4,8c0.2,1,21.1,83.8,61.1,156.2c27.1,49,84.5,108.5,80.4,133.4
				C1168.3,1776.7,1157.6,1777.6,1150.6,1776.6z"/>
		</g>
		<g>
			<path class="st0" d="M1631.5,799.4c-2.6-4.2-96.7,51.9-246.5,73.1c-106.6,15.1-191.7,34.7-255.8,113.7c-3.2,4,1.4-7.3,6.8-18.4
				c12.4-25.6,25.1-54.9,35-73.1c43.5-79.9,84.2-140.7,82.6-139.5c-33.6,26.6-81.8,102.1-122,173.8c6.9-60.8,5-117.7-5.9-169.7
				c-10.5-50.5-47.8-117-52.1-114.7c-4.2,2.2,64.2,112.4,39.3,298c-1.2,8.7-8.2,40-17.5,48c-17.6-63.9-44.2-109.2-78.3-154.5
				c-32.5-43.1-85-80-117.1-106.7c-27.4-22.8-65.1-63.1-69.3-65.7c-7.1-4.4,16,34.6,78.2,87c64.5,54.3,134.8,112.9,173.2,268.3
				c0.2,0.7-0.2,2.6,0.2,3.3c-10.2,20.5-19.7,40.7-28.6,60.3c-5.7-26.6-15-52.2-27.8-76.5c-13.8-26.1-26-42.9-47.6-65.2
				c-47.1-48.9-97.5-69.4-94.2-65.7c8.9,9.8,36.4,27.7,71.1,64c31.9,33.4,76.4,95.5,85.5,173.4c-6.9,16.2-13.2,32-19,47.4
				c-16.6-61.2-69.8-158.6-215.6-227.9c-29.5-14-64.6-27.5-90.9-37c-114.3-41.2-149.5-68.2-152.5-64.3
				c-2.9,3.9,55.1,40.9,146.3,77.4c25.7,10.3,52.8,21.1,81.8,34.6c103.9,48.2,198.7,135.6,218.9,251.2c-8.4,25.3-15,49.5-19.6,72.3
				c-11.7-20.9-35.3-42.7-73.6-67.3c-64.2-41.3-101.9-100.3-106.1-97.8c-4.2,2.5,34.3,73.6,96.7,112.8
				c33.2,20.9,53.3,44.9,64.3,61.4c5.9,8.9,10.3,17,13.4,24.2c-17.9,102.4-15.7,188.2,7.9,268.5c6.1,20.7,32.7,108.6,34.6,135
				c3.6,48.9-58.9,52-58.9,52H623.3v-706.3h-22.2v728.5h369.1c0,0,85.3,0.4,89.7-72.4c1.8-29.9-32.2-117.6-39.1-137.7
				c-27.5-80.8-34.8-160.1-15.2-271.6c12.5-71,30.8-129.6,57-188c1.3-2.8,5.5-1.2,4.5,1.8c-4.1,12.1-7.8,24.1-11.4,35.8
				c-20,65-27,123.1-27,154.7c0,4.9,4,10.3,8.9,10.7c11.5,0.9,43.5-48,98.2-86.4c12.6-2.1,33.7-6.3,55.5-7.7
				c69.3-4.4,162.5,18.2,163.8,14.6c1.7-4.6-75.9-37.7-169.9-32.7c-7.4,0.4-14.1,1.1-20.2,1.9c4.7-3.8,9.3-7.7,13.9-11.4
				c15.9-13,36.2-31.3,57.2-51.4c6.7,1.1,18.9,2.5,37,2.5c4.2,0,46.1-0.4,50.6-0.9c64-7.1,93.6-38.5,91.1-42.8
				c-2.4-4-46.6,30.5-161,24c54.2-52.9,107.4-111,101.8-116.3c-3.6-3.4-129.3,115.5-187.4,161.7c-45.6,36.2-93.8,74.6-115,91.5
				c12.2-80.5,46.5-214,107.9-275.4c65.7-65.7,145.1-77.7,227.6-92.6C1536,862.7,1634.1,803.5,1631.5,799.4z"/>
			<path class="st0" d="M1593.3,982.9v772h-258.2c-59.4-4-155.5-68.5-205.1-134.6c-71.6-95.5-80.5-201-81.7-241.9
				c-0.2-4.9-5.7-8.8-10.7-8.6c-4.9,0.1-10.8,6-10.7,10.9c0.8,26.6,6.7,70.3,21.6,119.5c15.1,49.8,37.7,96.8,67.2,136
				c52.1,69.5,111.2,105.6,151.9,123.5c35.1,15.4,68.1,17.3,68.1,17.3h279.7V982.9H1593.3z"/>
			<polygon class="st0" points="623.3,398.6 1593.3,398.6 1593.3,656.1 1615.5,655.8 1615.5,376.4 601.1,376.4 601.1,688.9 
				623.3,688.9 			"/>
		</g>
		<path class="st0" d="M731.1,1119.4c27,10.5,63.7-12.4,63.7-12.4s-19.9-34.6-48.1-46.4c-30.6-12.8-70.2,5.1-70.2,5.1
			S700.2,1107.4,731.1,1119.4z"/>
		<path class="st0" d="M771.6,1025.7C767,997.1,797,966,797,966s29.7,26.6,35.4,56.7c6.2,32.6-19.5,67.6-19.5,67.6
			S776.9,1058.5,771.6,1025.7z"/>
		<path class="st0" d="M860.6,1094.7c-3.3-28.8,28.1-58.5,28.1-58.5s28.5,28,32.8,58.2c4.7,32.8-22.6,66.6-22.6,66.6
			S864.4,1127.7,860.6,1094.7z"/>
		<path class="st0" d="M850.7,803c-4.6-28.6,25.4-59.7,25.4-59.7s29.7,26.6,35.4,56.7c6.2,32.6-19.5,67.6-19.5,67.6
			S856,835.8,850.7,803z"/>
		<path class="st0" d="M772.8,1205.8c28.9-2.2,52.1-38.7,52.1-38.7s-32.9-22.6-63.4-21.1c-33.1,1.7-61.1,34.9-61.1,34.9
			S739.7,1208.4,772.8,1205.8z"/>
		<path class="st0" d="M835.6,1271.6c27-10.6,38.5-52.2,38.5-52.2s-38-12-66.8-1.6C776.1,1229,759,1269,759,1269
			S804.7,1283.7,835.6,1271.6z"/>
		<path class="st0" d="M810.6,883c26.7,11.3,64-10.5,64-10.5s-18.8-35.2-46.7-47.8c-30.2-13.7-70.3,3-70.3,3S780,870,810.6,883z"/>
		<path class="st0" d="M900.2,977.9c27.4,9.6,63.3-14.5,63.3-14.5s-21-33.9-49.6-44.8c-31-11.8-70,7.4-70,7.4S868.9,967,900.2,977.9
			z"/>
		<path class="st0" d="M941.2,875.9c-6.3-28.3,21.8-61.1,21.8-61.1s31.2,24.8,38.7,54.5c8.1,32.2-15.5,68.6-15.5,68.6
			S948.4,908.3,941.2,875.9z"/>
		<path class="st0" d="M761.2,634.4c17.9,22.8,61.2,21.7,61.2,21.7s0.5-39.9-17.8-64.4c-19.8-26.6-63-31.3-63-31.3
			S740.7,608.3,761.2,634.4z"/>
		<path class="st0" d="M772.4,731.6c28.4,5.9,60.8-22.7,60.8-22.7s-25.3-30.9-55.1-37.9c-32.3-7.6-68.4,16.5-68.4,16.5
			S739.9,724.9,772.4,731.6z"/>
		<path class="st0" d="M902.2,615.2c0.8,29-33.1,55.8-33.1,55.8s-25.9-30.3-27.6-60.9c-1.8-33.1,28.3-64.4,28.3-64.4
			S901.3,582.1,902.2,615.2z"/>
		<path class="st0" d="M1024,581.7c7.3,28.1,47.4,44.4,47.4,44.4s16.4-36.4,9.5-66.2c-7.5-32.3-45.2-53.9-45.2-53.9
			S1015.6,549.6,1024,581.7z"/>
		<path class="st0" d="M995.3,675.3c23.7,16.8,64.8,3.5,64.8,3.5s-10.8-38.4-35.3-56.7c-26.5-19.9-69.3-12.2-69.3-12.2
			S968.2,656.1,995.3,675.3z"/>
		<path class="st0" d="M1160.9,620.5c-10.9,26.9-52.6,38-52.6,38s-11.6-38.2-0.9-66.8c11.6-31.1,51.7-47.7,51.7-47.7
			S1173.3,589.8,1160.9,620.5z"/>
		<path class="st0" d="M1270,679.6c-18.7,22.2-8.8,64.3-8.8,64.3s39.2-7.6,59.5-30.5c22-24.8,17.9-68,17.9-68
			S1291.4,654.3,1270,679.6z"/>
		<path class="st0" d="M1177.1,710.3c0,29,34.6,54.9,34.6,54.9s25.1-31,25.9-61.6c0.9-33.2-30.1-63.6-30.1-63.6
			S1177.1,677.1,1177.1,710.3z"/>
		<path class="st0" d="M1317.4,813.8c-28.2,6.7-61.4-21-61.4-21s24.4-31.5,54-39.4c32.1-8.5,68.8,14.7,68.8,14.7
			S1349.7,806.2,1317.4,813.8z"/>
		<path class="st0" d="M1032.8,799c23.7,16.8,64.8,3.5,64.8,3.5s-10.8-38.4-35.3-56.7c-26.5-19.9-69.3-12.2-69.3-12.2
			S1005.7,779.8,1032.8,799z"/>
		<path class="st0" d="M1258.4,884.5c-28.2,6.7-61.4-21-61.4-21s24.4-31.5,54-39.4c32.1-8.5,68.8,14.7,68.8,14.7
			S1290.7,876.9,1258.4,884.5z"/>
		<path class="st0" d="M1390.2,937.6c-22.5,18.3-20.7,61.5-20.7,61.5s39.9-0.2,64.1-18.9c26.3-20.3,30.3-63.5,30.3-63.5
			S1415.9,916.7,1390.2,937.6z"/>
		<path class="st0" d="M1286.9,969c-5.4,28.5,23.7,60.4,23.7,60.4s30.4-25.8,37-55.7c7.1-32.4-17.7-68.1-17.7-68.1
			S1293.1,936.4,1286.9,969z"/>
		<path class="st0" d="M1382.7,1086.9c-27.8,8.2-62.5-17.6-62.5-17.6s22.7-32.8,51.8-42.3c31.6-10.2,69.5,10.9,69.5,10.9
			S1414.6,1077.5,1382.7,1086.9z"/>
		<path class="st0" d="M1678.2,739.7c-26.4,12.1-35.5,54.3-35.5,54.3s38.7,9.9,66.8-2.1c30.5-13,45.3-53.8,45.3-53.8
			S1708.4,725.9,1678.2,739.7z"/>
		<path class="st0" d="M1581.1,727.6c-12.4,26.2,7.7,64.4,7.7,64.4s35.9-17.3,49.8-44.6c15-29.6,0.1-70.4,0.1-70.4
			S1595.3,697.6,1581.1,727.6z"/>
		<path class="st0" d="M1663.6,881.2c-28.4-6-46.5-45.3-46.5-45.3s35.6-18,65.7-12.5c32.6,6.1,55.9,42.7,55.9,42.7
			S1696.1,888.1,1663.6,881.2z"/>
		<path class="st0" d="M1434.8,1254.2c24.1,16.1,26.5,59.3,26.5,59.3s-39.7,3.6-65.6-12.7c-28.1-17.7-36.2-60.3-36.2-60.3
			S1407.2,1235.8,1434.8,1254.2z"/>
		<path class="st0" d="M1381.5,1154.2c-25.8,13.3-32.9,55.9-32.9,55.9s39.1,8,66.6-5.3c29.9-14.4,42.7-55.9,42.7-55.9
			S1411,1139,1381.5,1154.2z"/>
		<path class="st0" d="M1470.8,1056c-28.8,3.5-50.3,41-50.3,41s33.8,21.1,64.3,18.3c33-3.1,59.5-37.6,59.5-37.6
			S1503.8,1052,1470.8,1056z"/>
		<path class="st0" d="M1294.2,1257.4c-16-24.2-59.2-26.7-59.2-26.7s-3.7,39.7,12.5,65.7c17.6,28.1,60.2,36.4,60.2,36.4
			S1312.6,1285.1,1294.2,1257.4z"/>
		<path class="st0" d="M1205.1,1033.2c0.2,29,35,54.7,35,54.7s24.9-31.2,25.5-61.8c0.7-33.2-30.5-63.4-30.5-63.4
			S1204.9,1000,1205.1,1033.2z"/>
		<path class="st0" d="M1134.1,1093.1c0.2,29,35,54.7,35,54.7s24.9-31.2,25.5-61.8c0.7-33.2-30.5-63.4-30.5-63.4
			S1133.9,1060,1134.1,1093.1z"/>
		<path class="st0" d="M1389.3,791.3c-11.8,26.5,9.2,64.2,9.2,64.2s35.5-18.1,48.7-45.7c14.3-29.9-1.6-70.3-1.6-70.3
			S1402.9,761,1389.3,791.3z"/>
		<path class="st0" d="M1489.4,769.9c-11.8,26.5,9.2,64.2,9.2,64.2s35.5-18.1,48.7-45.7c14.3-29.9-1.6-70.3-1.6-70.3
			S1502.9,739.6,1489.4,769.9z"/>
		<path class="st0" d="M1580.5,925.3c-26-12.9-33.8-55.4-33.8-55.4s38.9-8.6,66.7,4.2c30.1,14,43.6,55.2,43.6,55.2
			S1610.2,940,1580.5,925.3z"/>
		<path class="st0" d="M1490.8,946.6c-19.1-21.9-10-64.1-10-64.1s39.3,6.9,60,29.5c22.5,24.4,19.1,67.7,19.1,67.7
			S1512.5,971.7,1490.8,946.6z"/>
	</g>
	<g>
		<g>
			<path class="st0" d="M174.2,2032.4c5.4,0,9.5,5.5,20.3,6c10.8,0.5,169,0,195.1,0.6c9,0.2,17.4-6.6,19.9-6.6c2.6,0,3,39,1,48
				c-0.9,3.9-2,7-3,7s2.2-8.1-1.6-16.7c-5.4-12.3-18.4-11.7-25.6-12.7c-7.2-1-70.8-1.7-70.8-1.7s-2.2,252.4-1.6,255.8
				c0.5,3.4,3.1,9.2,10.8,13.7c7.9,4.5,19.9,2.5,20.5,5.8c0.3,1.5-2,2-5.1,2c-7.2,0-14.4-0.5-21-1c-6.7-0.5-13.3-1-20-1
				c-6.7,0-13.3,0.5-20,1c-6.7,1-34.5,2.7-35.5-0.3c-0.6-1.9,8.9-2.2,11.4-2.6c11.6-1.4,17.9-3,21-9.3c2.6-6.4,4.1-14.2,4.1-23.9
				c0-3.9,0.5-225.5,0.5-240.2c-8.7,0-64.6-0.6-73.3,0.9c-9.2,1.5-17.6,4.2-23.1,10.8c-8.2,9.9-1.1,20.4-4.7,19.3c-1-1-2-5-2.5-9.5
				C170.3,2071.5,169.5,2032.3,174.2,2032.4z"/>
			<path class="st0" d="M549.9,2329.9c24.6,0.4,28.6-10.6,30.2-27.4c0.5-5.4,0.2-236.5-1.3-244.3c-1.5-7.8-4.2-14.9-21-16.1
				c-3.6-0.3-7.6,0.3-8.2-1.5c-0.5-1.5,2-2.4,4.6-2.4c5.1,0,10.8,0.5,16.9,1c5.6,0.5,11.8,1,17.4,1c7.7,0,15.4-0.5,22-1.5
				c6.7-1,13.8-1.5,20.5-1.5c4.1,0,9-0.1,9.2,2.4c0.3,2.7-27.7-3.3-26.6,22.5c0.2,4.2-1.7,245.7-0.7,250.1c0.5,4.9,1.9,7.3,3.6,10.1
				c4,6.4,27,6,27.2,9.4c0.1,2.1-3.6,2-6.7,2c-7.2,0-13.8-0.5-20.5-1c-6.7-0.5-12.8-1-19.5-1c-6.2,0-12.3,0.5-19,1
				c-6.7,0.5-12.8,1-18.5,1c-4.6,0-9.3,0.6-10.8-1.9C548.1,2330.6,549.3,2329.9,549.9,2329.9z"/>
			<path class="st0" d="M799.4,2265.6c2.9,0.4,2.5,13.7,2.6,15.6c0.5,8.1,2.1,11.7,6.2,16.6c3.6,4.9,8.7,9.3,15.4,12.7
				c6.2,3.4,13.3,6.3,21,8.3c7.7,1.9,14.9,2.9,22.6,2.9c9.2,0,17.4-1.5,25.1-4.9c7.2-2.9,13.3-6.9,18.4-11.7
				c4.6-4.9,8.2-10.3,10.7-16.6c2.6-5.9,3.6-11.7,3.6-17.6c0-1,0-2,0-2.4c-0.5-8.8-3.1-16.6-7.7-23.9c-4.6-7.3-10.3-14.2-16.4-20.5
				c-6.7-6.3-13.3-12.2-20.5-17.6c-7.2-5.4-33.9-27.3-40.5-33.7c-6.7-5.9-12.3-12.2-17.5-19c-5.1-6.3-9.2-13.7-12.3-21.5
				c-3.1-7.3-4.6-15.6-4.6-24.9c0-9.8,2-19.1,6.1-27.9c3.6-8.8,9.2-16.6,15.9-23c6.7-6.4,14.9-11.7,24.1-15.7
				c9.2-3.4,19-5.4,29.7-5.4c11.8,0,21.5,0.5,30.2,1.9c8.7,1.5,36.9,1.9,36.9,1.9c0.5,1.5,0.5,3.4,0.5,4.9l0,5.9
				c0,2.9,0,6.8-0.5,11.2c-0.5,4.4-1,8.8-1.5,13.2c-0.5,4.4-1.5,7.8-2,10.8c-1,2.9-2,4.4-2.6,4.4c-1.5,0-2.6-1-2.6-2.9l0-5.4
				c-1-9.8-4.6-17.1-10.8-22.5c-6.7-4.9-12.8-8.3-19.5-10.7c-6.7-1.9-12.3-2.9-16.9-2.9l-4.1,0c-6.7,0-13.8,1-20.5,3
				c-7.2,2-13.3,4.9-19,9.3c-5.6,4.4-9.7,9.8-13.3,16.1c-3.6,6.8-5.1,14.7-5.1,23.9c0,10.3,3.1,19.5,9.3,27.8
				c6.2,8.8,13.9,17.1,23.1,25.4c8.7,8.3,49.8,40,59,48.3c8.7,8.3,16.4,17.6,22.6,26.8c6.2,9.3,9.3,19.5,9.3,30.8
				c0,13.7-2.5,25.4-8.2,35.2c-5.6,9.8-12.8,17.6-21.5,23.5c-9.2,6.4-19.5,10.8-30.7,13.7c-11.8,2.9-23.6,4.4-35.4,4.4
				c-5.6,0-12.3-0.5-19.5-1c-7.2-0.5-13.8-1.9-20.5-3.4c-6.7-1.5-12.3-3.9-16.9-6.3c-4.6-2.4-6-5.8-7.7-8.8
				C789.5,2307.3,795.9,2265.2,799.4,2265.6z"/>
			<path class="st0" d="M1125.5,2324.8c3.6-1.5,6.7-3.9,8.7-6.8c1.5-2.9,3.1-6.4,3.6-10.3c0.5-3.9,0.7-222.3,0.7-222.3
				c0-10.3-1.1-20-3.1-28.8c-2.6-8.8-9-14.2-21-16.1c-2.5-0.4-3.8,0.2-4.1-0.5c-1-2.2,1.5-3.9,4.1-3.9c3.1,0,8.7,0.5,16.9,1.4
				c7.7,1,14.9,1.4,21.5,1.4c7.7,0,14.4-0.5,20.5-1.5c5.6-1,12.8-1.5,20.5-1.5c2.1,0,5.3,0.3,5.1,2.4c-0.2,1.8-4.1,1.3-7.7,1.5
				c-7.8,0.4-19.8,4.4-21.5,13.2c-0.9,5,1.8,235.5,2.3,242.8c0.5,7.3,2.6,12.7,6.2,15.1c3.6,1.5,8.2,2.9,13.3,3.4
				c4.6,0.5,9.7,1,14.4,1c10.8,0,20,0,28.7-0.5c8.7,0,15.9-0.5,22.6-2c6.2-1.5,11.3-3.4,15.9-6.9c4.1-2.9,11.3-12.7,12.7-23
				c0.5-3.4,0-5.4,3.1-5.4c1.5,0,2.1,1,2.1,2.4c0,2.9-0.6,43.2-10.2,50.3c-1.8,1.4-20.5,2-24.1,2c-14.4-0.5-28.7-1.4-43.1-2.4
				c-14.9-0.5-29.2-0.9-44.1-0.9c-8.7,0-17.4,0.5-25.1,1c-7.7,0.5-17.9,1-30.8,1c-1.5,0-6.7-0.2-7.7-1.5c-0.9-1.2,1.5-2.4,4.6-2.4
				C1116.8,2327.2,1122,2326.3,1125.5,2324.8z"/>
			<path class="st0" d="M1463,2038.6c13.8,0.5,72.5-1.2,87.7-1.1c5.7,0.1,27.7-3,31.3-3c2.5,9.8-0.5,46.4-1,47.4c-0.5,0-2.6,0-3.1,0
				c-0.5-0.5-1.4-12.6-6.7-19c-2-2.5-4.6-3.9-7.7-5.4c-3.6-1.5-7.7-2.2-12.8-2.4c-5.1-0.2-53.3,0.6-59,1.1
				c-1.5,19.5-1.9,111.9-1.9,111.9c2.1,0,74.3-2,86.1-2.5c2.5,14.9-1,39.1-1.5,41.5c-0.5,2.4-2,3.4-3.1,2.4c-0.4-0.3,0-1.5,0.5-2
				c1.6-13.1-5.1-17.1-9.8-19.5c-4.6-2.4-12.8-3.9-24.6-3.9c-8.2,0-41,1.5-47.7,1.5c0,10.3,1.7,115.8,1.7,121.2
				c4.6,2.4,10.3,4.9,18,6.3c7.2,1.9,16.9,2.9,29.7,2.9c5.6,0,11.8-0.5,18.5-1.5c6.2-1,12.3-2.9,17.9-5.4c5.6-2.4,10.2-5.4,14.9-9.3
				c4.1-3.4,7.2-8.3,8.7-13.7c1-3.4,1.5-6.4,1.5-7.8c0-1.5,1-2.4,2.6-2.9c1.5,1,2.1,2,2.1,3.4c0,6.4-0.5,12.7-2,19.1
				c-1.5,6.4-3.1,12.2-5.1,17.1c-2,5.4-4.1,9.3-6.1,12.7c-2.6,3.4-4.1,4.9-5.6,4.9c-16.9,0-35.9-0.4-55.9-1.9
				c-20-1.4-39.5-1.9-57.9-1.9c-5.6,0-11.8,0.5-17.4,1c-6.2,0.5-23.1,1.8-23.6,0c-0.7-2.4,3.1-2.5,5.6-2.4
				c10.3,0,17.4-7.3,19.5-14.7c1.5-7.3,2.5-16.1,2.5-25.4c0-16.6-0.3-203.2-0.3-203.2c0-10.3-1.1-20-3.6-28.3
				c-2.6-8.3-8.2-12.2-16.4-15.1c-3.4-1.2-9.7-0.5-9.7-1.9c0-1.4,2-1.7,3.6-2C1441.5,2035.3,1456.5,2038.3,1463,2038.6z"/>
			<path class="st0" d="M1770.4,2323.5c3.3-2.1,7.6-5.4,9.2-9.3c1.5-3.9,1.1-8.3,1.6-13.2s0.9-243.3,0.7-247.7
				c-0.4-8-25.1-13.6-27.7-14.6c-2.6-0.5-4.3-1.5-4.1-2.4c0.4-1.9,6.4-4.9,25.1-0.5c7.6,1.8,15.9,1.9,23.6,1.9
				c8.7,0,17.9-0.5,27.7-1c9.7-0.5,19-1,28.7-1c16.9,0,31.3,1.9,43.1,5.3c11.8,3.9,22.1,9.3,29.8,16.1c7.7,6.8,13.9,15.1,17.5,24.4
				c3.6,9.3,5.7,20,5.7,31.3c0,10.3-1.5,19.5-4.6,28.3c-3.6,9.3-7.7,17.1-12.8,24.4c-5.1,7.3-10.7,14.2-16.4,19.6
				c-6.1,5.4-11.8,10.3-16.9,13.7c11.8,16.6,24.1,32.2,35.9,47.3c11.8,15.1,23.1,28.3,34.9,40c11.3,11.7,22.6,21,33.9,28.3
				c10.8,7.3,21.5,11.7,32.3,12.7l4.6,0c1.5,0,2.1,2.9,0.5,3.4c-1.5,0.5-18.5,2-20.5,2c-19,0-34.9-3.9-47.7-11.7
				c-13.3-7.3-24.6-16.6-33.9-26.8c-11.3-12.2-22.6-25.9-33.9-40.5c-11.3-14.2-22.6-29.3-34.4-45.4c-8.2,1-56.4,1.5-60,2
				c-0.5,2.9,1.1,88.9,1.1,93.3c0,4.4,2,16.9,8.2,19.5c3.4,1.4,8.2,2.9,14.9,2.9l4.1,0c1,0,0.5,3.9-1,3.9c-1.5,0.5-3.6,0.5-5.1,0.5
				c-6.7,0-13.3-0.5-19-1c-6.2-0.5-12.3-1-17.9-1c-7.7,0-14.9,0.5-22,1c-7.7,1-15.4,1.5-23.6,1.5c-3.6,0-5.6-1-6.2-2.4
				C1746.9,2327.4,1764.5,2327.3,1770.4,2323.5z M1910.2,2169.4c3.6-6.4,6.1-14.2,8.2-22.5c1.5-8.3,2.5-16.6,2.5-24.9
				c0-9.3-1.6-18.1-4.6-27.4c-3.1-8.8-7.7-16.6-14.4-23.4c-6.7-6.8-15.4-12.2-25.7-16.6s-22.6-6.3-37.4-6.3c-3.6,0-7.2,0.5-10.8,1
				c-3.6,0.5-7.7,1.5-11.3,2.5c-2.5,22.5-3.4,120.2-4.4,142.7c7.2,1,14.4,1.7,21.5,2.4C1886.5,2202.3,1906.6,2176.3,1910.2,2169.4z"
				/>
		</g>
		<g>
			<g>
				<path class="st0" d="M704.8,2616.7c-5.1,2.9-11.7,4.8-19.7,5.6c-8,0.8-16,1.3-24,1.3c-12.5,0-24.2-1.6-35.7-5.1
					c-11.5-3.5-21.6-8.5-30.4-15.7c-8.8-7.2-16-16-21.1-26.9c-5.1-10.7-7.7-23.2-7.7-37.8c0-11.7,2.1-22.4,6.1-32
					c4-9.6,9.6-17.9,16.8-24.8c7.2-6.9,15.7-12.3,25.8-16.3c9.9-3.7,20.8-5.6,32.8-5.6c5.3,0,11.5,0.3,18.4,0.8
					c6.7,0.8,13.3,1.3,19.5,1.9c6.1,0.8,11.2,1.3,15.7,1.9c4.3,0.5,6.9,0.5,6.9,0.5s-0.3,6.1-0.3,7.2c0,3.5,0.3,6.9,0.5,10.4
					c0.3,3.5,0.5,6.7,0.5,9.6c0,1.3,0,2.7-0.3,4c-0.3,1.3-1,2.6-1.9,2.4c-1.1-0.3-1-1.9-1.1-3.2c-0.4-7.6-8.8-19.2-18.1-22.7
					c-9.3-3.5-23.2-5.3-41.6-5.3c-11.2,0-20.8,1.9-28.5,5.6c-8,4-14.4,9.1-19.5,15.2c-5.1,6.4-8.8,13.6-11.2,21.3
					c-2.4,8-3.5,16-3.5,24.3c0,12.5,2.1,24,6.1,33.8c4,9.9,9.6,18.4,16.8,25.3c7.2,6.9,15.5,12.3,25.3,15.7c9.6,3.7,20,5.6,31.2,5.6
					c5.9,0,11.2-0.3,16.3-1.1c5.1-0.8,9.3-1.9,13.1-3.7c3.7-1.9,6.7-4.3,9.1-7.7c2.1-3.2,4.1-9.9,4-16c0-1.1,0.6-3,1.6-2.1
					C709.5,2585.3,708.5,2609.3,704.8,2616.7z"/>
				<path class="st0" d="M781.6,2619.3c0.8,0,8.3-1.3,10.7-3.5c2.1-1.9,4-4.3,5.6-7.2c1.3-2.7,56.7-152.3,57-153
					c0.3-0.5,1-0.6,1.6,1.1c4.1,11.6,51.7,144.4,53.8,148.4c1.9,4,4.3,7.2,7.2,9.9c2.9,2.7,9,4.3,13.9,4c1.3-0.1,3.2,0,3.5,1.1
					c0.2,0.8-2.9,1.3-7.5,1.6c-4.5,0.3-24.8,0.6-28.2-0.8c-1.2-0.5-2.9-2.7-5.1-7.7c-2.1-5.1-4.3-10.9-6.7-17.6
					c-2.4-6.7-4.5-13.3-6.7-20c-2.1-6.7-3.7-11.5-4.8-14.4c-8-0.3-39.7-0.8-46.4-0.8c-2.4,5.6-17.5,52.3-17.9,53.6
					c-1.2,4.3,5.9,4.9,6.9,5.1c0.8,0.1,2.9,0.3,1.9,1.6c-0.4,0.5-2.9,0.8-3.7,0.8c-2.4,0-4.5,0-5.9-0.3c-1.6,0-12.4-1.9-19.5-0.5
					c-2.4,0.4-11.9,2.7-12,0C779.4,2619.9,780.2,2619.3,781.6,2619.3z M872.4,2551.4c-2.9-9.9-16.8-48.5-19.7-58.1
					c-3.2,9.1-17.3,48.7-20.2,58C834.4,2551.3,872.4,2551.4,872.4,2551.4z"/>
				<path class="st0" d="M1012.9,2617.7c1.8-1.1,3.8-3.3,4.6-5.4c0.8-2.1,0.7-4.2,1-6.9c0.3-2.7,0.8-132.7,0.5-135.1
					c-0.3-2.4-1.6-4.3-3.5-5.9c-5-3.2-12.6-2-12.8-4c-0.2-2.2,8.8-0.4,12.8,0.3c4,0.7,8.3,1.1,12.3,1.1c4.5,0,9.3-0.3,14.4-0.5
					c5.1-0.3,9.9-0.5,14.9-0.5c8.8,0,16.3,1.1,22.4,2.9c6.1,2.1,11.5,5.1,15.5,8.8c4,3.7,7.2,8.3,9.1,13.3
					c1.9,5.1,2.9,10.9,2.9,17.1c0,5.6-0.8,10.7-2.4,15.5c-1.9,5.1-4,9.3-6.7,13.3c-2.7,4-5.6,7.7-8.5,10.7c-3.2,2.9-6.1,5.6-8.8,7.5
					c6.1,9.1,12.5,17.6,18.7,25.8c6.1,8.3,12,15.5,18.1,21.9c5.9,6.4,11.7,11.5,17.6,15.5c5.6,4,11.2,6.4,16.8,6.9h2.4
					c0.8,0,1.3,0.3,1.6,1.1c0,0.3-0.5,0.5-1.3,0.8c-0.8,0.3-1.9,0.5-3.2,0.5c-1.3,0.3-2.4,0.3-3.7,0.3c-1.3,0.3-2.7,0.3-3.7,0.3
					c-9.9,0-18.1-2.1-24.8-6.4c-6.9-4-12.8-9.1-17.6-14.7c-5.9-6.7-11.7-14.1-17.6-22.1c-5.9-7.7-11.7-16-17.9-24.8
					c-4.3,0.5-28.5,1.2-30.4,1.5c-0.3,1.6,0,55,0.8,56.9c0.5,1.9,1.6,3.2,3.2,4.3c1.6,1.1,4.3,1.3,7.7,1.6c0.9,0.1,3.3,0.3,3.5,1.3
					c0.3,1.5-3.7,1.1-4.5,1.1c-3.5,0-6.9-0.3-9.9-0.5c-3.2-0.3-6.4-0.5-9.3-0.5c-4,0-7.7,0.3-11.5,0.5c-4,0.5-8,0.8-12.3,0.8
					c-1.9,0-3.4-0.5-3.2-1.3C1000.5,2618.3,1008.5,2620.3,1012.9,2617.7z M1078.9,2543.1c2.8-1.9,4.8-5.6,6.7-9.3
					c1.9-3.5,3.2-7.7,4.3-12.3c0.8-4.5,1.3-9.1,1.3-13.6c0-5.1-0.8-9.9-2.4-14.9c-1.6-4.8-4-9.1-7.5-12.8c-3.5-3.7-8-6.7-13.3-9.1
					c-5.3-2.4-11.7-3.5-19.5-3.5c-1.9,0-3.7,0.3-5.6,0.5c-1.9,0.3-5.6,0.6-7.5,1.1c0,13,0.5,65.7,0,78
					C1039.2,2547.9,1066.5,2551.3,1078.9,2543.1z"/>
				<path class="st0" d="M1238.3,2462.1c6.7-0.1,14.1-0.5,22.4-1.9c8.3-1.3,15.7-1.9,22.4-1.9c9.1,0,17.3,0.5,24.5,1.3
					c7.2,1.1,13.6,2.7,19.7,5.1c5.9,2.4,11.5,5.3,16.8,9.1c5.1,3.7,10.1,8.3,15.2,13.9c5.1,5.6,9.9,13.3,13.9,23.2
					c4,9.9,5.9,21.1,5.9,33.6c0,11.7-2.1,22.4-6.1,32.2c-4.3,9.9-10.1,18.1-17.3,25s-15.7,12.3-25.3,16c-9.9,4-20.3,5.9-31.4,5.9
					c-9.1,0-17.6-0.5-25.6-1.9c-8.3-1.1-16.3-2.1-24.5-2.9c-5.1,0-9.6,0.3-13.6,0.8c-4,0.5-7.5,0.8-9.9,0.8c-1.6,0-2.4-0.5-2.4-1.3
					c0-0.5,0.5-1.1,1.9-1.3c1.1-0.3,13.8-2.4,14.1-11.5c0.1-2.4-2.7-130.8-3.2-136.7c0-1.9-0.5-3.2-1.9-4c-1.3-0.5-8.3-1.6-10.1-1.9
					c-1.9-0.3-3.8-0.6-4-2.1C1219.5,2460.3,1228.5,2462.3,1238.3,2462.1z M1255.1,2598.3c0.3,9.1,7.4,13,22.1,16.5
					c6.8,1.6,13.6,1.3,19.7,1.3c10.9,0,20.5-1.9,28.8-5.6c8.3-3.7,14.9-8.8,20.3-15.2c5.3-6.4,9.3-13.9,12-22.7
					c2.7-8.5,4-17.6,4-27.4c0-4.5-0.5-9.1-1.3-13.9c-0.8-4.5-2.1-9.1-3.5-13.6c-1.3-4.3-2.9-8.3-4.8-12c-1.9-3.5-3.5-6.4-5.3-8.8
					c-8.8-10.7-18.1-18.4-28.2-22.9c-10.1-4.5-22.1-6.5-35.7-6.7c-12.6-0.1-29.3,3.6-29.6,3.9
					C1253.2,2471.6,1254.5,2577.3,1255.1,2598.3z"/>
				<path class="st0" d="M1478.4,2485.8c6.9-7.7,15.2-13.9,24.5-18.7c9.3-4.8,19.7-7.2,30.6-7.2c5.9,0,11.2,0.3,15.7,0.8
					c4.5,0.8,8.5,1.6,12.5,2.9c4,1.3,7.7,2.9,11.2,4.8c3.5,1.9,6.9,4.3,10.7,6.9c9.6,7.2,17.3,16.5,23.2,27.7
					c5.9,11.5,8.8,23.7,8.8,37c0,12.5-2.4,24-7.2,34.1c-4.8,10.1-10.9,18.7-18.4,25.8c-7.7,7.2-21.5,22.2-52.5,22.1
					c-10.1,0-20-1.9-29.6-5.3c-9.9-3.5-18.4-8.5-26.1-15.2c-7.7-6.7-13.9-15.2-18.4-25.6c-4.8-10.1-7.2-21.9-7.2-35.4
					c0-9.6,1.9-19.2,5.9-29C1466.1,2502.1,1471.5,2493.6,1478.4,2485.8z M1479.7,2569.5c4,10.1,8.8,18.4,14.9,25
					c6.1,6.7,12.8,11.7,20.3,14.9c7.5,3.5,14.7,5.1,21.6,5.1c6.1,0,12-0.8,17.9-2.1c5.6-1.3,11.2-4.3,16.8-8.5
					c8.8-6.7,15.5-15.2,20-25.6c4.3-10.4,6.4-21.3,6.4-33c0-8.3-1.1-17.1-3.5-26.4c-2.4-9.3-6.4-17.9-11.5-25.6
					c-5.3-7.7-12-13.9-20-18.9c-8.3-5.1-17.9-7.5-29-7.5c-11.5,0-21.1,2.1-28.8,6.4c-7.7,4.5-13.9,9.9-18.4,16.5
					c-4.5,6.7-7.7,13.9-9.6,21.6c-1.9,7.7-2.9,15.2-2.9,22.1C1473.9,2547.4,1475.7,2559.4,1479.7,2569.5z"/>
			</g>
			<g>
				<polygon class="st0" points="1657.5,2555.5 2129.5,2554.9 2129.5,2532.7 1657.8,2533.3 				"/>
				<polygon class="st0" points="524.1,2556.9 70.5,2557.5 70.5,2535.3 523.8,2534.7 				"/>
			</g>
		</g>
	</g>
</g>
</svg>
